<svg width="512" height="512" viewBox="0 0 512 512" fill="none" xmlns="http://www.w3.org/2000/svg">
  <rect width="512" height="512" rx="153.6" fill="#F97316"/>
  <g transform="translate(76.8, 76.8) scale(14.93)">
    <path d="M7 10L5 4L10 7" stroke="white" stroke-width="2.5" stroke-linecap="round" stroke-linejoin="round"/>
    <path d="M17 10L19 4L14 7" stroke="white" stroke-width="2.5" stroke-linecap="round" stroke-linejoin="round"/>
    <path d="M4 12C4 9.79086 5.79086 8 8 8H16C18.2091 8 20 9.79086 20 12V17C20 19.2091 18.2091 21 16 21H8C5.79086 21 4 19.2091 4 17V12Z" fill="white"/>
    <circle cx="8.5" cy="13.5" r="1.2" fill="#F97316" fill-opacity="0.6"/>
    <circle cx="15.5" cy="13.5" r="1.2" fill="#F97316" fill-opacity="0.6"/>
    <path d="M11 16L12 17L13 16" stroke="#F97316" stroke-width="1.5" stroke-opacity="0.4" stroke-linecap="round"/>
    <path d="M20 17C22 17 23 15 23 13" stroke="white" stroke-width="2.5" stroke-linecap="round"/>
  </g>
</svg>
